<?xml version="1.0" encoding="UTF-8" standalone="no"?>
<svg width="83px" height="88px" viewBox="0 0 83 88" version="1.1" xmlns="http://www.w3.org/2000/svg" xmlns:xlink="http://www.w3.org/1999/xlink" xmlns:sketch="http://www.bohemiancoding.com/sketch/ns">
    <!-- Generator: Sketch 3.3.3 (12081) - http://www.bohemiancoding.com/sketch -->
    <title>baby</title>
    <desc>Created with Sketch.</desc>
    <defs></defs>
    <g id="Bright" stroke="none" stroke-width="1" fill="none" fill-rule="evenodd" sketch:type="MSPage">
        <g id="baby" sketch:type="MSLayerGroup" transform="translate(0.000000, 0.382653)" fill="#000000">
            <path d="M81.9743571,24.4782245 C80.5667449,17.7196531 76.8791735,13.5798163 75.378398,12.1332449 C71.1835102,7.93835714 65.6064184,5.62790816 59.6736122,5.62790816 C53.7408061,5.62790816 48.1637143,7.93835714 43.9688265,12.1332449 C37.9979082,18.1033163 35.9788061,26.5413673 38.8838061,33.2389592 C38.7796327,33.504051 38.4417041,33.9944286 38.207949,34.3332041 C37.8844184,34.8024082 37.5134592,35.343602 37.2297347,35.9398469 C35.7331939,28.192051 30.350051,25.4937041 25.9561327,23.295898 C21.6994184,21.1666939 18.3362245,19.4846735 18.0592755,14.1887653 C17.9042857,11.2244796 18.6978673,8.84881633 20.4171531,7.12783673 C24.2258367,3.31491837 31.3951735,3.6257449 31.5103571,3.62997959 C32.3488265,3.67656122 33.0755,3.02780612 33.1212347,2.18340816 C33.1669694,1.33816327 32.5190612,0.616571429 31.6746633,0.570836735 C31.3223367,0.550510204 23.0579082,0.163459184 18.2616939,4.95120408 C15.8953469,7.31331633 14.7977143,10.4749388 15.0001327,14.3488367 C15.3702449,21.4267041 20.0546633,23.7701837 24.5857857,26.0357449 C28.3809184,27.9337347 32.0049694,29.7495714 33.6505714,34.376398 C33.4583163,34.2874694 33.2719898,34.1917653 33.0704184,34.1138469 C28.3445,32.2844592 22.1626939,33.8927959 17.6679898,35.6425714 C16.9150612,33.8114898 15.2914796,32.4462245 13.750051,31.6856735 C11.855449,30.7515 10.0684082,30.6837449 8.95891837,31.5162857 C3.80190816,35.4511633 0.597938776,42.0344184 0.0990918367,46.5028673 C-0.105020408,48.3305612 0.157530612,49.6949796 0.879122449,50.5580102 C2.18086735,52.1138367 3.65369388,52.6177653 5.09264286,52.6177653 C6.69589796,52.6177653 8.25595918,51.9910306 9.48402041,51.4972653 C9.94136735,51.3134796 10.3733061,51.1398571 10.7671327,51.0085816 C11.9096531,50.6291531 14.2912449,50.9611531 16.2265,51.3973265 C11.5861224,56.1893061 8.88354082,60.2165 8.19667347,63.3738878 C6.61967347,68.6181327 7.387,76.2515918 12.6549592,81.5491939 C15.4837347,84.3932143 20.2071122,87.1516939 27.8863061,87.1516939 C31.5171327,87.1516939 35.8094184,86.5351224 40.8749592,85.0182551 C51.1491735,81.893898 64.9983163,74.9600102 73.0577857,64.8704286 C73.0738776,64.850102 73.0891224,64.8306224 73.1043673,64.809449 C77.7328878,58.3820306 77.6024592,53.756051 77.4771122,49.2816735 C77.4237551,47.3836837 77.3737857,45.5873265 77.6981633,43.6681633 C81.5034592,35.5892143 83.2049592,30.3796939 81.9743571,24.4782245 L81.9743571,24.4782245 Z M74.8405918,42.5459694 C74.7838469,42.6662347 74.7431939,42.7949694 74.7186327,42.9262449 C74.298551,45.2341531 74.3578367,47.3354082 74.4145816,49.3680612 C74.5314592,53.507898 74.6415612,57.4173673 70.6406224,62.9885306 C63.0063163,72.5250612 49.3587449,79.2362041 39.9899082,82.0853061 C25.6732551,86.3716633 18.4039796,82.9847551 14.8282041,79.3886531 C10.4317449,74.9676327 9.81093878,68.5766327 11.1465612,64.2038878 C11.1601122,64.1598469 11.1711224,64.1149592 11.1812857,64.0700714 C12.3365102,58.5437959 22.3253061,49.5179694 26.0780918,46.5062551 C26.7378571,45.9769184 26.8437245,45.013102 26.3135408,44.3524898 C25.7842041,43.6935714 24.8195408,43.5868571 24.1606224,44.1170408 C24.0403571,44.2127449 21.663,46.1276735 18.7588469,48.8903878 C18.7571531,48.8895408 18.7546122,48.8886939 18.7529184,48.8878469 C18.1422755,48.7057551 12.7015408,47.1346837 9.79908163,48.1044286 C9.31717347,48.2653469 8.82171429,48.4635306 8.34234694,48.6566327 C5.70836735,49.7153061 4.4294898,50.0269796 3.24038776,48.6092041 C2.4747551,47.4023163 4.40577551,38.8871939 10.7518878,34.0037449 C11.0576327,33.9453061 12.1196939,34.126551 13.2740714,34.9667143 C13.6738265,35.2572143 14.4750306,35.9305306 14.842602,36.8460714 C13.0665714,37.668449 11.8986429,38.3332959 11.7445,38.4222245 C11.011898,38.8448469 10.7603571,39.7815612 11.1829796,40.5141633 C11.606449,41.2467653 12.5423163,41.4983061 13.2749184,41.0756837 C14.1557347,40.5675204 15.506602,39.8764184 17.1191735,39.1802347 C17.1581327,39.1649898 17.195398,39.148898 17.2326633,39.1311122 C21.6054082,37.2568367 27.8490408,35.3774796 31.9626224,36.9705714 C33.7378061,37.6582857 34.9938163,38.9312347 35.7840102,40.8453163 C33.8148776,42.7094286 32.2844592,45.4077755 31.6882143,48.2213061 C31.0987449,51.0018061 31.4917245,53.5612551 32.7943163,55.4279082 C33.1212347,55.8962653 33.5480918,56.3239694 34.0545612,56.716102 L27.9142551,69.5971939 C27.5500714,70.3611327 27.874449,71.2749796 28.6375408,71.6391633 C28.8501224,71.7407959 29.0745612,71.7890714 29.2956122,71.7890714 C29.8672959,71.7890714 30.4161122,71.4672347 30.6795102,70.9158776 L36.7376633,58.2067143 C42.6569184,60.6577551 52.5059694,60.9008265 56.1384898,60.9008265 C56.7050918,60.9008265 57.1209388,60.894898 57.3462245,60.8906633 C58.1923163,60.8754184 58.8647857,60.1766939 58.8486939,59.330602 C58.833449,58.4946735 58.1508163,57.8272857 57.3182755,57.8272857 C57.3089592,57.8272857 57.2987959,57.8272857 57.2894796,57.8281327 C51.0763367,57.9382347 41.1358163,57.2234184 36.9273776,54.9756429 C36.8452245,54.9129694 36.7562959,54.8579184 36.6597449,54.8121837 C36.6360306,54.8011735 36.6114694,54.7960918 36.588602,54.7867755 C36.0270816,54.4496939 35.5900612,54.0795816 35.3071837,53.6755918 C34.4949694,52.511051 34.2739184,50.8002347 34.6855306,48.8573571 C35.2766939,46.0683878 37.0772857,43.3446327 39.1328061,42.1004796 C39.5943878,41.8074388 40.1550612,41.6744694 41.0824592,41.4745918 C41.1239592,42.2419184 41.1349694,43.2167449 41.112949,44.0560612 C41.0934694,44.7886633 41.5957041,45.4331837 42.3122143,45.5924082 C43.1312041,45.7745 43.8976837,46.5189592 44.7073571,47.3074592 C44.7166735,47.3167755 44.7268367,47.3269388 44.737,47.3362551 C42.4561939,47.9037041 40.9435612,48.3957755 40.7301327,48.4660714 C39.9272347,48.7320102 39.4919082,49.5984286 39.7578469,50.4013265 C39.9704286,51.0441531 40.5692143,51.4523776 41.2120408,51.4523776 C41.3712653,51.4523776 41.5338776,51.4269694 41.693102,51.3744592 C41.8751939,51.3151735 60.0386429,45.4043878 68.8290204,50.6350816 C69.5573878,51.0687143 70.4966429,50.8281837 70.9285816,50.1023571 C71.3613673,49.3756837 71.1225306,48.4347347 70.3958571,48.0027959 C64.3563367,44.4092347 55.0781224,45.2333061 48.5016429,46.5054082 C47.9612959,46.1954286 47.4150204,45.6686327 46.8441837,45.1121939 C46.0827857,44.3719694 45.2451633,43.3700408 44.0543673,43.1718571 C44.1043367,42.1707755 44.1331327,40.3422347 43.8917551,39.452102 C43.8883673,39.4368571 43.8841327,39.4233061 43.879898,39.4080612 C43.8697347,39.3724898 43.8612653,39.3309898 43.8502551,39.2979592 C43.8434796,39.2776327 43.8324694,39.2606939 43.8256939,39.2412143 C43.8036735,39.1819286 43.7782653,39.1251837 43.7494694,39.0692857 C43.7316837,39.0354082 43.713898,39.0023776 43.6935714,38.9701939 C43.6622347,38.9193776 43.6275102,38.871949 43.5902449,38.8253673 C43.5639898,38.7923367 43.5377347,38.761 43.5089388,38.7305102 C43.4733673,38.692398 43.4352551,38.6576735 43.395449,38.6237959 C43.3573367,38.5907653 43.3200714,38.5602755 43.2785714,38.5314796 C43.2438469,38.5069184 43.2082755,38.484898 43.1718571,38.4637245 C43.1193469,38.4332347 43.0668367,38.4044388 43.0117857,38.3807245 C42.9812959,38.3671735 42.9508061,38.3561633 42.9194694,38.3443061 C42.855102,38.3205918 42.7898878,38.3011122 42.7221327,38.2858673 C42.6907959,38.2790918 42.6594592,38.2740102 42.6281224,38.2689286 C42.564602,38.2587653 42.5019286,38.2528367 42.4375612,38.2502959 C42.4138469,38.249449 42.3918265,38.2435204 42.3681122,38.2435204 L42.3672653,38.2435204 L42.3672653,38.2435204 L42.3672653,38.2435204 C42.053898,38.248602 41.7803367,38.2469082 41.5406531,38.2384388 C40.0703673,38.1884694 40.1110204,38.2198061 39.8662551,37.8446122 C39.6214898,37.4694184 40.3371531,36.6487347 40.7309796,36.077898 C41.4373265,35.053949 42.2376837,33.8927959 41.8963673,32.5334592 C41.8735,32.4419898 41.8421633,32.3522143 41.8023571,32.2658265 C39.2361327,26.6811122 40.9774388,19.4626531 46.1361429,14.303949 C49.7525714,10.6875204 54.5606429,8.69636735 59.6744592,8.69636735 C64.7882755,8.69636735 69.5963469,10.6883673 73.2322551,14.3234286 C74.548398,15.5921429 77.7413571,19.1840102 78.9753469,25.1075 C80.0382551,30.2009898 78.4163673,34.9768776 74.8405918,42.5459694 L74.8405918,42.5459694 Z" id="Shape" sketch:type="MSShapeGroup"></path>
            <path d="M64.4376429,32.9831837 C63.1680816,31.9389082 61.3217551,31.6221531 59.6194082,32.1582653 C58.8122755,32.4131939 58.3650918,33.2728367 58.6191735,34.0799694 C58.874102,34.887102 59.7354388,35.3342857 60.5408776,35.0802041 C61.2531531,34.8540714 62.0187857,34.9607857 62.4905306,35.3486837 C62.8792755,35.6688265 63.0393469,36.1558163 62.9673571,36.7977959 C62.844551,37.8886531 61.6325816,39.2420612 60.424,39.6375816 C59.6227959,39.8984388 59.3322959,39.5850714 59.2094898,39.4504082 C58.6369592,38.8279082 57.6680612,38.788102 57.0447143,39.3614796 C56.4222143,39.9340102 56.3824082,40.9037551 56.9557857,41.5262551 C57.7290408,42.3655714 58.7445204,42.8025918 59.8633265,42.8025918 C60.3520102,42.8025918 60.8601735,42.7195918 61.3759592,42.5502041 C63.7202857,41.7837245 65.7563265,39.4072143 66.0112551,37.1408061 C66.1992755,35.4757245 65.625898,33.9597041 64.4376429,32.9831837 L64.4376429,32.9831837 Z" id="Shape" sketch:type="MSShapeGroup"></path>
        </g>
    </g>
</svg>