<?xml version="1.0" encoding="UTF-8" standalone="no"?>
<svg width="94px" height="76px" viewBox="0 0 94 76" version="1.1" xmlns="http://www.w3.org/2000/svg" xmlns:xlink="http://www.w3.org/1999/xlink" xmlns:sketch="http://www.bohemiancoding.com/sketch/ns">
    <!-- Generator: Sketch 3.3.3 (12081) - http://www.bohemiancoding.com/sketch -->
    <title>family</title>
    <desc>Created with Sketch.</desc>
    <defs></defs>
    <g id="Bright" stroke="none" stroke-width="1" fill="none" fill-rule="evenodd" sketch:type="MSPage">
        <g id="family" sketch:type="MSLayerGroup" transform="translate(1.000000, 0.000000)" stroke="#000000" fill="#000000">
            <path d="M91.5696364,64.676 C90.9996364,62.4984848 84.8125455,40.7993333 83.9857576,37.9101818 C83.0265455,34.6191515 79.8702424,32.0201818 75.0972121,30.6164848 C73.3733939,30.1029091 71.8061818,28.9053333 71.5367273,28.4009697 C71.5770303,27.4832121 72.1677576,26.0173333 72.7331515,24.5940606 C73.527697,22.5823636 74.4339394,20.3138788 74.4339394,18.2492121 C74.4339394,14.0012727 72.3946061,9.45393939 66.6589091,9.45393939 C60.9220606,9.45393939 58.8930909,14.0012727 58.8930909,18.2492121 C58.8930909,19.7254545 59.3456364,21.2938182 59.9018182,22.8080606 C58.5188485,22.5927273 57.0863636,22.5616364 55.5893939,22.5305455 C53.5892121,22.4902424 51.5164848,22.4476364 49.5036364,21.9513333 C47.0808485,21.3548485 46.0813333,20.0962424 46.0076364,19.8498182 C46.0076364,18.9527879 46.6179394,17.4258788 47.2040606,15.9392727 C47.9986061,13.9379394 48.9071515,11.6602424 48.9071515,9.59672727 C48.9071515,5.34763636 46.8655152,0.807212121 41.1298182,0.807212121 C35.4044848,0.807212121 33.3628485,5.34763636 33.3628485,9.59672727 C33.3628485,11.6602424 34.2598788,13.9390909 35.0636364,15.9392727 C35.6221212,17.3729091 36.2105455,18.8376364 36.2508485,19.7553939 C35.9813939,20.2597576 34.4245455,21.4573333 32.7030303,21.961697 C29.9900606,22.7654545 25.08,24.6550909 22.6675758,28.3053939 C21.9766667,29.3601818 20.6662424,31.1530909 19.1830909,33.1636364 C18.8410909,33.1118182 18.4795152,33.0933939 18.1202424,33.0933939 C14.3329091,33.0933939 11.9803636,35.7441818 11.9803636,40.0151515 C11.9803636,40.8292727 12.1565455,41.6733333 12.3926061,42.4678788 C10.5778182,45.070303 9.44357576,46.8632121 9.22593939,47.7210909 C9.01981818,48.5133333 9.00024242,49.2572121 9.15569697,49.9377576 C6.88606061,51.0835152 5.39945455,52.6829697 4.84327273,54.6094545 C4.54272727,55.6515758 3.74012121,58.2413333 2.88224242,60.9750303 C1.78830303,64.4698788 0.758848485,67.7609091 0.522787879,68.6694545 C0.0276363636,70.5878788 0.872848485,72.2092121 2.73945455,72.9093333 C3.38890909,73.1580606 4.14315152,73.0958788 4.85363636,72.734303 C5.81169697,72.2713939 6.58666667,71.3628485 6.88490909,70.3817576 C6.90563636,70.2896364 6.92751515,70.2286061 6.96666667,70.1560606 C7.27872727,69.7230909 7.52515152,69.2590303 8.14236364,66.8857576 C8.45327273,65.7204242 8.73193939,64.7301212 8.97836364,63.9148485 L8.97836364,73.8270909 C8.97836364,74.5698182 9.58866667,75.1697576 10.3198788,75.1697576 C11.0626061,75.1697576 11.6625455,74.5698182 11.6625455,73.8270909 L11.6625455,72.6295152 L11.6625455,62.1426667 C11.6625455,61.636 11.6809697,61.2318182 11.6924848,60.9151515 C11.742,59.8407879 11.7846061,58.8297576 10.4845455,58.1089091 C10.0642424,57.8705455 9.55642424,57.8509697 9.09236364,58.0559394 C8.49587879,58.3138788 7.49290909,58.7491515 5.55375758,66.2052121 C5.00793939,68.2906061 4.84212121,68.5266667 4.79260606,68.5992121 C4.59569697,68.8652121 4.47133333,69.1035758 4.31818182,69.6079394 C4.2030303,69.9614545 3.8,70.3011515 3.59387879,70.3725455 C3.01812121,70.1249697 2.98587879,69.8578182 3.12175758,69.3407879 C3.33824242,68.4944242 4.45060606,64.9270303 5.44321212,61.7787879 C6.29763636,59.0255152 7.11290909,56.4161818 7.42036364,55.3556364 C7.78424242,54.1062424 8.90812121,53.0019394 10.6492121,52.1786061 C10.8967879,52.0634545 11.1535758,51.9494545 11.435697,51.8446667 C11.6936364,51.7433333 11.9711515,51.6385455 12.2786061,51.5579394 C12.3442424,51.5372121 12.4144848,51.5164848 12.4755152,51.4980606 C12.9407273,51.3518182 13.5694545,51.1019394 14.1993333,50.7530303 C14.5620606,50.5561212 14.9109697,50.3430909 15.2426061,50.081697 C16.1166061,49.4322424 16.8075152,48.5973939 16.8075152,47.6681212 C16.8075152,47.5230303 16.7971515,47.3813939 16.7902424,47.236303 C16.6727879,46.2252727 16.2294545,45.1013939 15.7665455,43.9153333 C15.6329697,43.586 15.5097576,43.2543636 15.3738788,42.9146667 C15.3738788,42.8939394 15.3646667,42.8720606 15.3531515,42.8524848 C15.1769697,42.3895758 14.9823636,41.8506667 14.8464848,41.3255758 C14.7336364,40.8615152 14.6541818,40.4181818 14.6541818,40.016303 C14.6541818,39.7790909 14.6633939,39.5303636 14.6852727,39.2827879 C14.6852727,39.2827879 14.6852727,39.2827879 14.6852727,39.2712727 C14.8188485,37.7869697 15.4153333,36.2612121 17.1806061,35.8777576 C17.4581212,35.8063636 17.7667273,35.7752727 18.1190909,35.7752727 C18.3862424,35.7752727 18.6338182,35.7971515 18.8698788,35.8478182 C19.3765455,35.9203636 19.8106667,36.0850303 20.1710909,36.3406667 C20.1918182,36.3533333 20.2113939,36.3729091 20.2321212,36.3832727 C21.4504242,37.3217576 21.584,39.2298182 21.584,40.0151515 C21.584,40.2512121 21.5540606,40.5287273 21.4895758,40.8292727 C21.4895758,40.8914545 21.47,40.9628485 21.4573333,41.0238788 C21.4504242,41.0457576 21.4400606,41.0768485 21.4400606,41.1067879 C21.2327879,41.9853939 20.8504848,42.9538182 20.4681818,43.8911515 C20.3530303,44.191697 20.2401818,44.4807273 20.1296364,44.7697576 C19.7358182,45.8003636 19.4145455,46.7906667 19.4145455,47.6669697 C19.4145455,47.7924848 19.4283636,47.915697 19.4490909,48.0377576 C19.7047273,49.514 21.4573333,50.9372727 23.8110303,51.5026667 C26.1405455,52.0830303 27.0801818,53.3082424 28.1833333,54.7338182 C28.4735152,55.1149697 28.7717576,55.4869091 29.07,55.8369697 C29.1644242,55.9521212 29.257697,56.0626667 29.3590303,56.1686061 L29.3590303,56.8272727 L29.3590303,59.8073939 C28.5656364,59.2719394 27.8850909,58.7560606 27.5235152,58.4658788 C27.3381212,58.3334545 27.2344848,58.2413333 27.2344848,58.2413333 C26.8026667,57.9004848 26.2027273,57.8498182 25.7179394,58.1169697 C24.4489697,58.8504848 24.4927273,59.85 24.5433939,60.9232121 C24.5433939,60.987697 24.5433939,61.0487273 24.5526061,61.1212727 C24.5629697,61.3987879 24.5744848,61.7384848 24.5744848,62.1426667 L24.5744848,73.8270909 C24.5744848,74.5698182 25.1732727,75.1697576 25.9148485,75.1697576 C26.6472121,75.1697576 27.2563636,74.5698182 27.2563636,73.8270909 L27.2563636,70.5694545 L27.2563636,62.1426667 C27.2563636,61.9561212 27.2448485,61.7707273 27.2448485,61.6049091 C27.8758788,62.0482424 28.6093939,62.5433939 29.3601818,62.9763636 L29.3601818,65.4532727 L29.3601818,66.5771515 L29.3601818,73.4758788 C29.3601818,74.2197576 29.9589697,74.8185455 30.7005455,74.8185455 C31.4340606,74.8185455 32.0432121,74.2186061 32.0432121,73.4758788 L32.0432121,71.3939394 L32.0432121,66.5748485 L32.0432121,47.2155758 L32.0432121,41.2633939 C32.0432121,40.5713333 32.0627879,40.0243636 32.0858182,39.5925455 C32.145697,38.187697 32.1986667,37.0741818 30.7132121,36.2704242 C29.26,35.4770303 26.6587273,36.0539394 24.0804848,38.1462424 C23.8225455,36.8150909 23.2237576,35.3008485 21.852303,34.2598788 C21.8223636,34.2368485 21.7912727,34.2069091 21.7486667,34.1884848 C23.1109091,32.340303 24.2359394,30.7926667 24.8946061,29.7931515 C26.3178788,27.6375152 29.4453939,25.726 33.4549697,24.5318788 C35.6635758,23.8835758 38.9327273,21.9432727 38.9327273,19.8498182 C38.9327273,18.4357576 38.2613939,16.7453333 37.5497576,14.9593333 C36.8381212,13.1779394 36.0470303,11.1432121 36.0470303,9.59672727 C36.0470303,7.31787879 36.7068485,3.4810303 41.1309697,3.4810303 C45.5666061,3.4810303 46.2252727,7.31672727 46.2252727,9.59672727 C46.2252727,11.1432121 45.4215152,13.1779394 44.7087273,14.9593333 C44.0074545,16.7453333 43.3372727,18.4369091 43.3372727,19.8498182 C43.3372727,21.7567273 45.711697,23.7799394 48.8668485,24.5514545 C51.1675758,25.1191515 53.3865455,25.1606061 55.5295152,25.2124242 C57.5412121,25.2527273 59.4504242,25.2941818 61.0590909,25.799697 C61.0982424,25.9148485 61.1431515,26.0265455 61.18,26.1393939 C61.5104848,27.018 61.7488485,27.8229091 61.7799394,28.3998182 C61.5116364,28.8926667 60.004303,30.0591515 58.3253939,30.5842424 C58.2954545,30.5969091 58.2620606,30.6061212 58.2321212,30.6153333 C55.7367879,31.347697 52.361697,32.8227879 50.4536364,35.5979394 C50.4317576,35.6198182 50.4133333,35.6405455 50.4041212,35.6589697 C50.3730303,35.7119394 50.3407879,35.7649091 50.3212121,35.8155758 C50.2901212,35.8892727 50.2498182,35.9698788 50.2279394,36.0424242 C50.2095152,36.1264848 50.1968485,36.216303 50.1876364,36.3003636 C50.1876364,36.3395152 50.1761212,36.3936364 50.1761212,36.4339394 C50.1553939,36.7529091 50.1657576,37.1144848 50.1876364,37.5601212 C50.2106667,37.9930909 50.2279394,38.5285455 50.2279394,39.2206061 L50.2279394,43.1599394 L50.2279394,73.4735758 C50.2279394,74.2174545 50.8278788,74.8162424 51.5694545,74.8162424 C52.3133333,74.8162424 52.9098182,74.216303 52.9098182,73.4735758 L52.9098182,53.9784242 C53.6997576,50.9672121 54.3676364,48.8714545 54.8892727,47.4815758 C54.8846667,47.6036364 54.8846667,47.7326061 54.8846667,47.8638788 L54.8846667,73.8236364 C54.8846667,74.5652121 55.4846061,75.161697 56.2261818,75.161697 C56.9666061,75.161697 57.5665455,74.5640606 57.5665455,73.8236364 L57.5665455,47.8650303 C57.5665455,47.1752727 57.5895758,46.6294545 57.6091515,46.1930303 C57.6701818,44.8492121 57.724303,43.6838788 56.2411515,42.8789697 C55.7920606,42.6267879 55.2554545,42.6037576 54.7741212,42.8075758 C54.4125455,42.9653333 53.8252727,43.2255758 52.9109697,45.2510909 L52.9109697,38.9914545 C52.9109697,38.3627273 52.8913939,37.8583636 52.8706667,37.4438182 C52.8591515,37.2181212 52.8591515,37.0200606 52.8487879,36.8553939 C53.5408485,35.9583636 54.5518788,35.1430909 55.8300606,34.4648485 C56.7616364,33.9581818 57.8221818,33.5240606 58.9967273,33.1832121 C61.2053333,32.5222424 64.4629697,30.5830909 64.4629697,28.4896364 C64.4629697,27.2310303 63.9286667,25.7478788 63.3091515,24.168 C63.2366061,23.9837576 63.1513939,23.7972121 63.0811515,23.6026061 C62.3695152,21.8154545 61.5657576,19.795697 61.5657576,18.2480606 C61.5657576,15.9611515 62.2244242,12.1335152 66.6623636,12.1335152 C71.098,12.1335152 71.7578182,15.96 71.7578182,18.2480606 C71.7578182,19.7968485 70.9540606,21.8166061 70.2412727,23.6026061 C69.5307879,25.384 68.8594545,27.0801818 68.8594545,28.4907879 C68.8594545,30.5842424 72.1274545,32.5233939 74.3372121,33.1843636 C76.5861212,33.8453333 80.4828485,35.4332727 81.4224848,38.6517576 C82.2389091,41.5305455 88.4156364,63.191697 88.9729697,65.3473333 C89.1998182,66.2029091 89.0961818,66.8535152 87.9412121,67.295697 C87.6625455,67.3475152 86.7229091,66.7395152 86.485697,65.9461212 C86.0423636,64.4813939 84.2805455,58.1768485 83.0403636,53.4326061 C80.4943636,43.6435758 79.1827879,43.0770303 78.5529091,42.8075758 C78.0692727,42.600303 77.5338182,42.6221818 77.0893333,42.8697576 C75.6050303,43.6838788 75.658,44.8008485 75.7190303,46.2010909 C75.7293939,46.6375152 75.7604848,47.1844848 75.7604848,47.8615758 L75.7604848,73.8247879 C75.7604848,74.5675152 76.3581212,75.1674545 77.0985455,75.1674545 C77.8320606,75.1674545 78.4412121,74.5675152 78.4412121,73.8247879 L78.4412121,47.8615758 C78.4412121,47.728 78.4308485,47.6047879 78.4308485,47.4827273 C78.966303,48.8944848 79.6468485,51.0190303 80.4425455,54.1131515 C81.7011515,58.8884848 83.4641212,65.2344848 83.9189697,66.7187879 C84.2690303,67.8944848 85.2489697,69.0275758 86.3935758,69.5964242 C87.2364848,70.0075152 88.1150909,70.0915758 88.8658788,69.8129091 C91.1666061,68.9377576 92.1684242,67.0285455 91.5696364,64.676 L91.5696364,64.676 Z M14.1141212,47.502303 C13.8366061,47.8615758 12.8370909,48.5950909 11.7339394,48.9152121 C11.7339394,48.7493939 11.7742424,48.5778182 11.818,48.4016364 C11.9400606,47.9893939 12.5998788,46.9253939 13.530303,45.5562424 C13.8158788,46.3058788 14.0634545,47.0163636 14.1141212,47.502303 L14.1141212,47.502303 Z M29.4235152,38.610303 L29.4235152,38.6206667 C29.4327273,38.8175758 29.4235152,39.1595758 29.4016364,39.4773939 C29.3809091,39.9414545 29.3590303,40.5195152 29.3590303,41.2633939 L29.3590303,47.2155758 L29.3590303,51.9160606 C28.2984848,50.6885455 26.8936364,49.5013333 24.4489697,48.906 C23.0153333,48.5547879 22.2518788,47.8431515 22.0987273,47.5748485 C22.1390303,46.9484242 22.5616364,45.8959394 22.9635152,44.8814545 C23.3239394,43.9556364 23.7062424,43.0067879 23.9641818,42.0360606 C26.5458788,38.9327273 28.9893939,38.4778788 29.4235152,38.610303 L29.4235152,38.610303 Z" id="Shape" sketch:type="MSShapeGroup"></path>
        </g>
    </g>
</svg>