<?xml version="1.0" encoding="UTF-8" standalone="no"?>
<svg width="110px" height="71px" viewBox="0 0 110 71" version="1.1" xmlns="http://www.w3.org/2000/svg" xmlns:xlink="http://www.w3.org/1999/xlink" xmlns:sketch="http://www.bohemiancoding.com/sketch/ns">
    <!-- Generator: Sketch 3.3.3 (12081) - http://www.bohemiancoding.com/sketch -->
    <title>home</title>
    <desc>Created with Sketch.</desc>
    <defs></defs>
    <g id="Bright" stroke="none" stroke-width="1" fill="none" fill-rule="evenodd" sketch:type="MSPage">
        <g id="home" sketch:type="MSLayerGroup" fill="#000000">
            <path d="M107.829031,70.8502344 L2.56820313,70.8502344 C1.67959375,70.8502344 0.959609375,70.13025 0.959609375,69.2416406 C0.959609375,68.3530312 1.67959375,67.6330469 2.56820313,67.6330469 L107.829031,67.6330469 C108.71875,67.6330469 109.437625,68.3530312 109.437625,69.2416406 C109.437625,70.13025 108.71875,70.8502344 107.829031,70.8502344 L107.829031,70.8502344 Z" id="Shape" sketch:type="MSShapeGroup"></path>
            <path d="M13.0850781,68.0102344 C13.0706562,67.8637969 11.6872656,53.1845469 10.7875625,38.482 C8.90273437,7.68575 10.8607812,6.79492187 12.2907656,6.1459375 C15.0664219,4.88235937 43.3754531,4.80803125 55.4210469,4.83132812 C64.778625,4.85240625 95.4916719,5.00771875 97.8169219,6.17145312 C99.1148906,6.8204375 100.460562,7.49160937 99.7439062,38.2911875 C99.4,53.028125 98.7099687,67.78725 98.7033125,67.9336875 C98.6622656,68.8222969 97.9189844,69.5034531 97.0203906,69.4657344 C96.1328906,69.4235781 95.4472969,68.6703125 95.4894531,67.7828125 C96.6953437,42.1407187 97.2677812,13.4933281 96.0352656,9.0036875 C88.4271719,7.7745 20.1329375,7.77339062 13.8760625,9.01589062 C12.2785625,12.9619375 13.8161562,41.5993437 16.2867344,67.7062656 C16.3710469,68.5904375 15.7209531,69.3747656 14.8367812,69.4590781 C13.8638594,69.4668437 13.1638437,68.8422656 13.0850781,68.0102344 Z" id="Shape" sketch:type="MSShapeGroup"></path>
            <path d="M45.8360469,69.4668438 C45.03175,69.4668438 44.3372813,68.8644531 44.2407656,68.0457344 C41.6248594,45.7728125 44.2085938,45.3800938 45.5975313,45.1704219 C47.5799844,44.8686719 59.2827813,43.9833906 61.7711094,44.8742187 C62.9337344,45.2913438 64.8817969,45.9891406 62.8305625,68.0080156 C62.7473594,68.8921875 61.9597031,69.5400625 61.0788594,69.4612969 C60.1946875,69.3792031 59.5434844,68.594875 59.6266875,67.7107031 C60.3755156,59.6599688 60.7815469,50.1770312 60.2179844,47.809625 C57.8783125,47.5001094 49.7954063,47.9005938 46.6514375,48.2755625 C45.9935781,50.5719688 46.5160938,59.8374688 47.4357656,67.6729844 C47.5389375,68.5549375 46.9077031,69.3547969 46.02575,69.4568594 C45.9614063,69.4635156 45.8970625,69.4668438 45.8360469,69.4668438 L45.8360469,69.4668438 Z" id="Shape" sketch:type="MSShapeGroup"></path>
            <path d="M92.9412187,3.24714063 L18.841625,3.24714063 C17.9530156,3.24714063 17.2330312,2.52826563 17.2330312,1.63965625 C17.2330312,0.7499375 17.9530156,0.0310625 18.841625,0.0310625 L92.9412187,0.0310625 C93.8298281,0.0310625 94.5498125,0.7499375 94.5498125,1.63965625 C94.5498125,2.52715625 93.8309375,3.24714063 92.9412187,3.24714063 L92.9412187,3.24714063 Z" id="Shape" sketch:type="MSShapeGroup"></path>
            <path d="M29.2997031,56.53375 C25.2183125,56.53375 22.7488438,55.9235937 21.9578594,54.7188125 C20.8407188,53.0137031 21.4020625,49.3405625 21.6960469,47.8417969 L21.7448594,47.5932969 L21.8668906,47.3725312 C23.0639063,45.2059219 30.2593125,44.4837187 32.0864531,44.4837187 C33.0826719,44.4837187 36.1168125,44.4837187 36.6781563,46.6481094 L36.7291875,46.8466875 C37.3570938,49.265125 38.2190781,52.5766094 36.396375,54.7986875 C35.4522969,55.9491094 33.0638125,56.53375 29.2997031,56.53375 L29.2997031,56.53375 Z M24.5970625,52.7918281 C25.1916875,53.0081562 26.8712813,53.3176719 29.2997031,53.3176719 C32.0764688,53.3176719 33.5929844,52.9171875 33.9524219,52.7030781 C34.6424531,51.7490156 34.0855469,49.4648125 33.6662031,47.8506719 C33.4287969,47.7863281 32.9495469,47.7020156 32.0864531,47.7020156 C29.2941563,47.7020156 25.870625,48.5074219 24.752375,49.0321562 C24.5072031,50.5575469 24.4406406,52.1472812 24.5970625,52.7918281 L24.5970625,52.7918281 Z" id="Shape" sketch:type="MSShapeGroup"></path>
            <path d="M77.9180625,56.53375 C73.8355625,56.53375 71.3660938,55.9235937 70.5762188,54.7188125 C69.4612969,53.0114844 70.0226406,49.3405625 70.3155156,47.8417969 L70.3654375,47.5932969 L70.4874688,47.3725312 C71.6844844,45.2059219 78.8787813,44.4837187 80.7059219,44.4837187 C81.7010313,44.4837187 84.7351719,44.4837187 85.2965156,46.6481094 L85.350875,46.8533437 C85.9798906,49.2706719 86.8407656,52.5788281 85.0180625,54.7986875 C84.0717656,55.9491094 81.6832813,56.53375 77.9180625,56.53375 L77.9180625,56.53375 Z M73.2154219,52.7918281 C73.8100469,53.0081562 75.4918594,53.3176719 77.9180625,53.3176719 C80.6959375,53.3176719 82.2124531,52.9171875 82.573,52.7030781 C83.2608125,51.7490156 82.7027969,49.4637031 82.2834531,47.8506719 C82.0460469,47.7863281 81.5667969,47.7020156 80.7048125,47.7020156 C77.9114063,47.7020156 74.4889844,48.5074219 73.3718438,49.0321562 C73.1266719,50.5564375 73.059,52.1472812 73.2154219,52.7918281 L73.2154219,52.7918281 Z" id="Shape" sketch:type="MSShapeGroup"></path>
            <path d="M29.2997031,42.1329531 C25.2183125,42.1329531 22.7488438,41.5216875 21.9578594,40.3180156 C20.8407188,38.6117969 21.4020625,34.9397656 21.6960469,33.4398906 L21.7448594,33.1913906 L21.8668906,32.970625 C23.0639063,30.8040156 30.2593125,30.0818125 32.0853438,30.0818125 C33.0826719,30.0818125 36.1157031,30.0818125 36.6781563,32.2473125 L36.7291875,32.4458906 C37.3582031,34.8643281 38.2201875,38.1758125 36.3974844,40.399 C35.4522969,41.5494219 33.0638125,42.1329531 29.2997031,42.1329531 L29.2997031,42.1329531 Z M24.5970625,38.3899219 C25.1916875,38.60625 26.8712813,38.9157656 29.2997031,38.9157656 C32.0764688,38.9157656 33.5929844,38.5163906 33.9524219,38.3011719 C34.6424531,37.3471094 34.0855469,35.0629063 33.6662031,33.4487656 C33.4287969,33.3844219 32.9495469,33.299 32.0864531,33.299 C29.2930469,33.299 25.870625,34.1055156 24.752375,34.63025 C24.5072031,36.15675 24.4406406,37.7464844 24.5970625,38.3899219 L24.5970625,38.3899219 Z" id="Shape" sketch:type="MSShapeGroup"></path>
            <path d="M77.9180625,42.1329531 C73.8355625,42.1329531 71.3660937,41.5216875 70.5762187,40.3180156 C69.4612969,38.6106875 70.0226406,34.9386562 70.3155156,33.4398906 L70.3654375,33.1913906 L70.4874687,32.970625 C71.6844844,30.8040156 78.8787812,30.0818125 80.7048125,30.0818125 C81.7010312,30.0818125 84.7351719,30.0818125 85.2965156,32.2473125 L85.350875,32.4514375 C85.9787812,34.8676562 86.8396562,38.1769219 85.0180625,40.3978906 C84.0717656,41.5494219 81.6832812,42.1329531 77.9180625,42.1329531 L77.9180625,42.1329531 Z M73.2154219,38.3899219 C73.8100469,38.6073594 75.4918594,38.9157656 77.9180625,38.9157656 C80.6959375,38.9157656 82.2124531,38.5163906 82.573,38.3011719 C83.2608125,37.3471094 82.7027969,35.0617969 82.2834531,33.4487656 C82.0460469,33.3844219 81.5667969,33.299 80.7037031,33.299 C77.9114063,33.299 74.4889844,34.1055156 73.3718438,34.63025 C73.1266719,36.1556406 73.059,37.745375 73.2154219,38.3899219 L73.2154219,38.3899219 Z" id="Shape" sketch:type="MSShapeGroup"></path>
            <path d="M53.1213125,42.1329531 C49.0399219,42.1329531 46.5693437,41.5216875 45.7794687,40.3180156 C44.6623281,38.6117969 45.2236719,34.9397656 45.5165469,33.4398906 L45.5653594,33.1913906 L45.6873906,32.970625 C46.8844062,30.8040156 54.0798125,30.0818125 55.9058437,30.0818125 C56.9020625,30.0818125 59.9373125,30.0818125 60.4986562,32.2473125 L60.5507969,32.4481094 C61.1787031,34.8654375 62.0395781,38.1758125 60.2179844,40.3978906 C59.2727969,41.5494219 56.8854219,42.1329531 53.1213125,42.1329531 L53.1213125,42.1329531 Z M48.4186719,38.3899219 C49.0121875,38.60625 50.6917812,38.9157656 53.1213125,38.9157656 C55.8969687,38.9157656 57.4145937,38.5163906 57.7751406,38.3011719 C58.4640625,37.3471094 57.9060469,35.0629063 57.4889219,33.4487656 C57.2504062,33.3844219 56.7722656,33.299 55.9069531,33.299 C53.1146562,33.299 49.691125,34.1055156 48.572875,34.63025 C48.3277031,36.15675 48.2611406,37.7464844 48.4186719,38.3899219 L48.4186719,38.3899219 Z" id="Shape" sketch:type="MSShapeGroup"></path>
            <path d="M29.0179219,27.201875 C24.9365313,27.201875 22.4659531,26.5906094 21.6749688,25.3847187 C20.5600469,23.6796094 21.1225,20.0064687 21.415375,18.5077031 L21.4641875,18.2592031 L21.5862188,18.0373281 C22.7832344,15.8718281 29.9753125,15.149625 31.8013438,15.149625 C32.7986719,15.149625 35.8339219,15.149625 36.396375,17.3162344 L36.449625,17.5214687 C37.0775313,19.9365781 37.9384063,23.243625 36.1168125,25.4645937 C35.1727344,26.6172344 32.78425,27.201875 29.0179219,27.201875 L29.0179219,27.201875 Z M24.3152813,23.4588437 C24.9099063,23.6751719 26.5895,23.9857969 29.0179219,23.9857969 C31.7946875,23.9857969 33.3134219,23.5853125 33.67175,23.3700937 C34.3617813,22.4149219 33.8026563,20.1296094 33.3833125,18.5187969 C33.1459063,18.4544531 32.6666563,18.3679219 31.8013438,18.3679219 C29.0101563,18.3679219 25.5888438,19.1744375 24.4717031,19.6991719 C24.2265313,21.2245625 24.1599688,22.8154062 24.3152813,23.4588437 L24.3152813,23.4588437 Z" id="Shape" sketch:type="MSShapeGroup"></path>
            <path d="M77.6362813,27.201875 C73.5537813,27.201875 71.0854219,26.5906094 70.2955469,25.3847187 C69.1784063,23.6807187 69.7408594,20.0075781 70.0337344,18.5077031 L70.0836563,18.2592031 L70.2045781,18.0384375 C71.4015938,15.8729375 78.5958906,15.149625 80.4219219,15.149625 C81.4181406,15.149625 84.4545,15.149625 85.0169531,17.3162344 L85.0690938,17.5159219 C85.6981094,19.93325 86.5589844,23.243625 84.7362813,25.4645937 C83.788875,26.6172344 81.4015,27.201875 77.6362813,27.201875 L77.6362813,27.201875 Z M72.93475,23.4588437 C73.5271563,23.6751719 75.2089688,23.9846875 77.6362813,23.9846875 C80.4130469,23.9846875 81.9295625,23.5842031 82.289,23.3700937 C82.9790313,22.4149219 82.4210156,20.1307187 82.0027813,18.5187969 C81.765375,18.4533437 81.286125,18.3679219 80.4208125,18.3679219 C77.6274063,18.3679219 74.2060938,19.1733281 73.0889531,19.6980625 C72.8437813,21.2256719 72.7772188,22.8154062 72.93475,23.4588437 L72.93475,23.4588437 Z" id="Shape" sketch:type="MSShapeGroup"></path>
            <path d="M52.8384219,27.201875 C48.7559219,27.201875 46.2864531,26.5906094 45.4965781,25.3847187 C44.3816562,23.6796094 44.943,20.0064687 45.2369844,18.5077031 L45.2857969,18.2592031 L45.4078281,18.0373281 C46.6037344,15.8718281 53.7980312,15.149625 55.6218437,15.149625 C56.6180625,15.149625 59.6555312,15.149625 60.216875,17.3162344 L60.2712344,17.5214687 C60.8991406,19.9365781 61.7600156,23.243625 59.9384219,25.4645937 C58.9932344,26.6172344 56.60475,27.201875 52.8384219,27.201875 L52.8384219,27.201875 Z M48.1368906,23.4588437 C48.7304063,23.6751719 50.41,23.9857969 52.8384219,23.9857969 C55.6162969,23.9857969 57.1339219,23.5853125 57.4933594,23.3700937 C58.1833906,22.4149219 57.6231563,20.1296094 57.2060313,18.5187969 C56.9675156,18.4544531 56.489375,18.3679219 55.6229531,18.3679219 C52.8317656,18.3679219 49.4104531,19.1744375 48.2933125,19.6991719 C48.0470313,21.2245625 47.9804688,22.8154062 48.1368906,23.4588437 L48.1368906,23.4588437 Z" id="Shape" sketch:type="MSShapeGroup"></path>
        </g>
    </g>
</svg>