<?xml version="1.0" encoding="UTF-8" standalone="no"?>
<svg width="52px" height="90px" viewBox="0 0 52 90" version="1.1" xmlns="http://www.w3.org/2000/svg" xmlns:xlink="http://www.w3.org/1999/xlink" xmlns:sketch="http://www.bohemiancoding.com/sketch/ns">
    <!-- Generator: Sketch 3.3.3 (12081) - http://www.bohemiancoding.com/sketch -->
    <title>pills</title>
    <desc>Created with Sketch.</desc>
    <defs></defs>
    <g id="Bright" stroke="none" stroke-width="1" fill="none" fill-rule="evenodd" sketch:type="MSPage">
        <g id="pills" sketch:type="MSLayerGroup" stroke="#000000" fill="#000000">
            <path d="M20.377976,59.5065789 C20.377976,58.8931579 19.8847706,58.3957895 19.2738551,58.3957895 C18.6629395,58.3957895 18.1697341,58.8919737 18.1697341,59.5065789 C18.1697341,63.7910526 21.6351201,67.2773684 25.8938722,67.2773684 C30.1526244,67.2773684 33.6180103,63.7910526 33.6180103,59.5065789 C33.6180103,58.8931579 33.1248049,58.3957895 32.5138894,58.3957895 C31.9029738,58.3957895 31.4097684,58.8919737 31.4097684,59.5065789 C31.4097684,62.5677632 28.9355017,65.0581579 25.891518,65.0581579 C22.8475343,65.0581579 20.377976,62.5677632 20.377976,59.5065789 L20.377976,59.5065789 Z" id="Shape" sketch:type="MSShapeGroup"></path>
            <path d="M17.0679674,51.7357895 L12.6538379,51.7357895 C12.0440995,51.7357895 11.549717,52.2319737 11.549717,52.8465789 C11.549717,53.4611842 12.0429224,53.9573684 12.6538379,53.9573684 L17.0679674,53.9573684 C17.6777058,53.9573684 18.1720883,53.4611842 18.1720883,52.8465789 C18.1720883,52.2319737 17.6777058,51.7357895 17.0679674,51.7357895 L17.0679674,51.7357895 Z" id="Shape" sketch:type="MSShapeGroup"></path>
            <path d="M34.7244854,53.955 L39.1386149,53.955 C39.7483533,53.955 40.2427358,53.4588158 40.2427358,52.8442105 C40.2427358,52.2296053 39.7495304,51.7334211 39.1386149,51.7334211 L34.7244854,51.7334211 C34.114747,51.7334211 33.6203645,52.2296053 33.6203645,52.8442105 C33.6203645,53.4588158 34.114747,53.955 34.7244854,53.955 L34.7244854,53.955 Z" id="Shape" sketch:type="MSShapeGroup"></path>
            <path d="M25.8962264,0.665526316 C13.5908105,0.665526316 0.515570326,4.16723684 0.515570326,10.6578947 L0.515570326,23.9802632 C0.515570326,25.6026316 1.33247856,27.0378947 2.75088551,28.2777632 C2.745,28.3275 2.72263508,28.3713158 2.72263508,28.4210526 L2.72263508,79.4901316 C2.72263508,85.0926316 12.9022063,89.4825 25.8974035,89.4825 C38.8926008,89.4825 49.072172,85.0938158 49.072172,79.4901316 L49.072172,28.4210526 C49.072172,28.3713158 49.049807,28.3275 49.0439215,28.2777632 C50.4623285,27.0378947 51.2792367,25.6026316 51.2792367,23.9802632 L51.2792367,10.6578947 C51.2768825,4.16842105 38.2016424,0.665526316 25.8962264,0.665526316 L25.8962264,0.665526316 Z M2.72145798,14.9293421 C6.9590223,18.6667105 16.6453881,20.6490789 25.8962264,20.6490789 C29.2462564,20.6490789 32.6445476,20.3802632 35.8286063,19.8734211 L35.8286063,30.9552632 C32.8752594,31.4514474 29.5393546,31.7510526 25.8962264,31.7510526 C12.2394983,31.7510526 2.72145798,27.6548684 2.72145798,23.9802632 L2.72145798,14.9293421 L2.72145798,14.9293421 Z M46.862753,66.1677632 C46.862753,69.8435526 38.2522577,73.9385526 25.8962264,73.9385526 C13.5401951,73.9385526 4.92969983,69.8423684 4.92969983,66.1677632 L4.92969983,37.1617105 C8.59754717,40.5509211 16.4994275,42.8542105 25.8962264,42.8542105 C35.2930253,42.8542105 43.1949057,40.5521053 46.862753,37.1617105 L46.862753,66.1677632 L46.862753,66.1677632 Z M46.862753,32.8618421 C46.862753,36.5376316 38.2522577,40.6326316 25.8962264,40.6326316 C13.5401951,40.6326316 4.92969983,36.5364474 4.92969983,32.8618421 L4.92969983,29.7722368 C9.8005446,32.5219737 18.0002316,33.9726316 25.8962264,33.9726316 C33.7922213,33.9726316 41.9919082,32.5219737 46.862753,29.7722368 L46.862753,32.8618421 L46.862753,32.8618421 Z M42.4486235,29.2973684 L42.4486235,18.3256579 C43.2196248,18.0781579 43.9611985,17.8117105 44.6556883,17.5227632 L44.6556883,28.3796053 C43.9835635,28.6981579 43.2549378,29.0060526 42.4486235,29.2973684 L42.4486235,29.2973684 Z M40.2427358,29.9842105 C39.5423606,30.1796053 38.8066724,30.3607895 38.0356711,30.5277632 L38.0356711,19.4719737 C38.7925472,19.3180263 39.5270583,19.1486842 40.2427358,18.9615789 L40.2427358,29.9842105 L40.2427358,29.9842105 Z M25.8962264,87.2621053 C13.539018,87.2621053 4.92969983,83.1659211 4.92969983,79.4913158 L4.92969983,70.4688158 C8.59754717,73.8580263 16.4994275,76.1613158 25.8962264,76.1613158 C35.2930253,76.1613158 43.1949057,73.8592105 46.862753,70.4688158 L46.862753,79.4913158 C46.862753,83.1659211 38.2534348,87.2621053 25.8962264,87.2621053 L25.8962264,87.2621053 Z M49.0709949,23.9802632 C49.0709949,25.0259211 48.2776286,26.1011842 46.8639301,27.1113158 L46.8639301,16.4498684 C47.6973178,15.9797368 48.4506625,15.4764474 49.0709949,14.9305263 L49.0709949,23.9802632 L49.0709949,23.9802632 Z M45.3348756,14.7339474 C45.3313443,14.7339474 45.3266359,14.7386842 45.3242817,14.7386842 C41.3327316,16.8335526 34.4207933,18.4286842 25.8962264,18.4286842 C12.2394983,18.4286842 2.72145798,14.3325 2.72145798,10.6578947 C2.72145798,6.98328947 12.2394983,2.88710526 25.8962264,2.88710526 C39.5529545,2.88710526 49.0709949,6.98210526 49.0709949,10.6578947 C49.0709949,12.0375 47.7302766,13.4739474 45.3348756,14.7339474 L45.3348756,14.7339474 Z" id="Shape" sketch:type="MSShapeGroup"></path>
        </g>
    </g>
</svg>