<?xml version="1.0" encoding="UTF-8" standalone="no"?>
<!DOCTYPE svg PUBLIC "-//W3C//DTD SVG 1.1//EN" "http://www.w3.org/Graphics/SVG/1.1/DTD/svg11.dtd">
<svg viewBox="0 0 10 10" version="1.1" xmlns="http://www.w3.org/2000/svg" xmlns:xlink="http://www.w3.org/1999/xlink" xmlns:sketch="http://www.bohemiancoding.com/sketch/ns">
  <path d="M5.64873662,4.99810305 L9.86612356,0.780716118 C10.0447819,0.602057785 10.0446683,0.311722053 9.86552467,0.132578381 C9.69162018,-0.041326114 9.39619985,-0.0468334209 9.21738693,0.131979495 L5,4.34936643 L0.782613065,0.131979495 C0.603800149,-0.0468334209 0.308379823,-0.041326114 0.134475328,0.132578381 C-0.0446683441,0.311722053 -0.0447818911,0.602057785 0.133876442,0.780716118 L4.35126338,4.99810305 L0.133876442,9.21548999 C-0.0447818911,9.39414832 -0.0446683441,9.68448405 0.134475328,9.86362773 C0.308379823,10.0375322 0.603800149,10.0430395 0.782613065,9.86422661 L5,5.64683968 L9.21738693,9.86422661 C9.39619985,10.0430395 9.69162018,10.0375322 9.86552467,9.86362773 C10.0446683,9.68448405 10.0447819,9.39414832 9.86612356,9.21548999 L5.64873662,4.99810305 Z" id="shape" sketch:type="MSShapeGroup"></path>
</svg>